<svg xmlns="http://www.w3.org/2000/svg" viewBox="0 0 96 96" role="img" aria-label="????">
  <ellipse cx="48" cy="86" rx="22" ry="4" fill="#40B8B0" opacity="0.2"/>
  <path d="M18 48c-8 2-12 10-10 16 4-2 10-4 16-6-2-4-4-8-6-10z" fill="#2A9A92"/>
  <path d="M70 42c10-6 18-2 20 6-6 2-14 6-22 8 0-6 0-10 2-14z" fill="#5ED4CC"/>
  <ellipse cx="48" cy="54" rx="24" ry="26" fill="#40B8B0"/>
  <ellipse cx="50" cy="60" rx="14" ry="16" fill="#B8F0EC"/>
  <circle cx="48" cy="34" r="20" fill="#4EC4BC"/>
  <circle cx="34" cy="38" r="4" fill="#FF9AA8" opacity="0.55"/>
  <circle cx="62" cy="38" r="4" fill="#FF9AA8" opacity="0.55"/>
  <circle cx="40" cy="32" r="5.5" fill="#FFFFFF"/>
  <circle cx="56" cy="32" r="5.5" fill="#FFFFFF"/>
  <circle cx="41.5" cy="33" r="2.8" fill="#1A2834"/>
  <circle cx="57.5" cy="33" r="2.8" fill="#1A2834"/>
  <circle cx="42.5" cy="31.5" r="1" fill="#FFFFFF"/>
  <circle cx="58.5" cy="31.5" r="1" fill="#FFFFFF"/>
  <path d="M44 40c2 4 6 4 8 0-2 1-6 1-8 0z" fill="#F0A050"/>
  <path d="M42 16c2-6 10-8 14-4-4 1-8 3-10 6" stroke="#2A7870" stroke-width="2.2" stroke-linecap="round" fill="none"/>
  <circle cx="56" cy="12" r="3" stroke="#40B8B0" stroke-width="2" fill="none"/>
  <path d="M40 78l-4 6M40 78v7M40 78l4 6M56 78l-4 6M56 78v7M56 78l4 6" stroke="#F0A050" stroke-width="2" stroke-linecap="round" fill="none"/>
</svg>
